<svg width="227" height="39" viewBox="0 0 227 39" fill="none" xmlns="http://www.w3.org/2000/svg">
<g filter="url(#filter0_ii_426_25120)">
<path d="M226.982 23C226.982 28.6005 226.982 31.4008 225.892 33.5399C224.934 35.4215 223.404 36.9513 221.522 37.9101C219.383 39 216.583 39 210.982 39L16.9824 39C11.3819 39 8.58163 39 6.44252 37.91C4.5609 36.9513 3.0311 35.4215 2.07236 33.5399C0.982423 31.4008 0.982423 28.6005 0.982423 23L0.982424 16C0.982424 10.3995 0.982425 7.59921 2.07236 5.46009C3.0311 3.57847 4.5609 2.04866 6.44252 1.08993C8.58164 -3.83441e-06 11.3819 -3.58961e-06 16.9824 -3.09999e-06L210.982 1.386e-05C216.583 1.43496e-05 219.383 1.45944e-05 221.522 1.08995C223.404 2.04868 224.934 3.57849 225.892 5.46011C226.982 7.59923 226.982 10.3995 226.982 16L226.982 23Z" fill="#F0F1F5"/>
<path d="M226.982 23C226.982 28.6005 226.982 31.4008 225.892 33.5399C224.934 35.4215 223.404 36.9513 221.522 37.9101C219.383 39 216.583 39 210.982 39L16.9824 39C11.3819 39 8.58163 39 6.44252 37.91C4.5609 36.9513 3.0311 35.4215 2.07236 33.5399C0.982423 31.4008 0.982423 28.6005 0.982423 23L0.982424 16C0.982424 10.3995 0.982425 7.59921 2.07236 5.46009C3.0311 3.57847 4.5609 2.04866 6.44252 1.08993C8.58164 -3.83441e-06 11.3819 -3.58961e-06 16.9824 -3.09999e-06L210.982 1.386e-05C216.583 1.43496e-05 219.383 1.45944e-05 221.522 1.08995C223.404 2.04868 224.934 3.57849 225.892 5.46011C226.982 7.59923 226.982 10.3995 226.982 16L226.982 23Z" fill="url(#paint0_linear_426_25120)" fill-opacity="0.6" style="mix-blend-mode:soft-light"/>
</g>
<defs>
<filter id="filter0_ii_426_25120" x="-2.65073" y="-3.63315" width="233.266" height="46.2663" filterUnits="userSpaceOnUse" color-interpolation-filters="sRGB">
<feFlood flood-opacity="0" result="BackgroundImageFix"/>
<feBlend mode="normal" in="SourceGraphic" in2="BackgroundImageFix" result="shape"/>
<feColorMatrix in="SourceAlpha" type="matrix" values="0 0 0 0 0 0 0 0 0 0 0 0 0 0 0 0 0 0 127 0" result="hardAlpha"/>
<feOffset dx="5.44973" dy="5.44973"/>
<feGaussianBlur stdDeviation="1.81658"/>
<feComposite in2="hardAlpha" operator="arithmetic" k2="-1" k3="1"/>
<feColorMatrix type="matrix" values="0 0 0 0 0.682353 0 0 0 0 0.682353 0 0 0 0 0.752941 0 0 0 0.2 0"/>
<feBlend mode="normal" in2="shape" result="effect1_innerShadow_426_25120"/>
<feColorMatrix in="SourceAlpha" type="matrix" values="0 0 0 0 0 0 0 0 0 0 0 0 0 0 0 0 0 0 127 0" result="hardAlpha"/>
<feOffset dx="-3.63315" dy="-3.63315"/>
<feGaussianBlur stdDeviation="1.81658"/>
<feComposite in2="hardAlpha" operator="arithmetic" k2="-1" k3="1"/>
<feColorMatrix type="matrix" values="0 0 0 0 1 0 0 0 0 1 0 0 0 0 1 0 0 0 0.7 0"/>
<feBlend mode="normal" in2="effect1_innerShadow_426_25120" result="effect2_innerShadow_426_25120"/>
</filter>
<linearGradient id="paint0_linear_426_25120" x1="0.982412" y1="-4.49876e-06" x2="14.0533" y2="75.7444" gradientUnits="userSpaceOnUse">
<stop/>
<stop offset="1" stop-color="white" stop-opacity="0"/>
</linearGradient>
</defs>
</svg>
