<svg width="157" height="28" viewBox="0 0 157 28" fill="none" xmlns="http://www.w3.org/2000/svg">
<path d="M6.60512 27.639C3.20112 27.639 0.870117 25.308 0.870117 21.386C0.870117 19.758 1.24012 18.5 1.49912 17.908C1.86912 17.057 2.64612 16.724 3.46012 16.983C4.20012 17.205 4.42212 18.093 4.12612 18.87C3.83012 19.721 3.68212 20.387 3.68212 21.238C3.68212 23.495 4.79212 25.012 6.67912 25.012C8.49212 25.012 9.67612 23.717 9.67612 19.98C9.67612 17.02 8.89912 15.466 6.45712 13.875L5.05112 12.95C2.64612 11.396 1.49912 9.731 1.49912 6.771C1.49912 3.367 3.68212 1.184 6.82712 1.184C10.1201 1.184 12.0441 3.034 12.0441 6.771V7.067C12.0441 7.918 11.4521 8.436 10.6751 8.436C9.93512 8.436 9.30612 7.918 9.30612 6.993V6.771C9.30612 4.477 8.30712 3.774 6.90112 3.774C5.34712 3.774 4.31112 4.995 4.31112 6.771C4.31112 8.51 4.94012 9.472 6.38312 10.397L7.78912 11.322C11.2671 13.542 12.5251 15.54 12.5251 19.795C12.5251 25.604 10.0461 27.639 6.60512 27.639Z" fill="white"/>
<path d="M23.5338 21.201C24.3478 21.201 24.7918 21.793 24.7918 22.644V23.125C24.7918 25.715 23.0898 27.602 20.4258 27.602C17.5028 27.602 15.7268 25.752 15.7268 22.496V9.694H13.8028C13.0998 9.694 12.5078 9.102 12.5078 8.399C12.5078 7.696 13.0998 7.104 13.8028 7.104H15.7268V2.331C15.7268 1.591 16.3558 0.962001 17.0958 0.962001C17.8358 0.962001 18.4648 1.591 18.4648 2.331V7.104H21.1658C21.8688 7.104 22.4608 7.696 22.4608 8.399C22.4608 9.102 21.8688 9.694 21.1658 9.694H18.4648V22.052C18.4648 24.161 19.2788 25.049 20.5368 25.049C21.6098 25.049 22.2388 24.124 22.2388 22.681V22.607C22.2388 21.756 22.7568 21.201 23.5338 21.201Z" fill="white"/>
<path d="M30.3739 6.771C33.7039 6.771 35.6279 8.88 35.6279 12.58V26.011C35.6279 26.751 34.9989 27.38 34.2589 27.38C33.6299 27.38 33.1859 27.01 32.9639 26.455C32.2239 27.269 31.4099 27.676 30.0039 27.676C27.0809 27.676 25.3419 25.863 25.3419 22.163V19.055C25.3419 15.355 27.0809 13.542 30.0039 13.542C31.3729 13.542 32.1869 13.912 32.8899 14.689V13.024C32.8899 10.471 32.0759 9.324 30.3739 9.324C28.6719 9.324 28.0429 10.249 28.0429 11.692V11.729C28.0429 12.432 27.6359 12.987 26.7479 12.987C26.0449 12.987 25.4899 12.395 25.4899 11.618V11.248C25.4899 8.658 27.0439 6.771 30.3739 6.771ZM30.2999 25.123C31.7059 25.123 32.8899 23.828 32.8899 21.423V19.795C32.8899 17.39 31.7059 16.095 30.2999 16.095C28.7089 16.095 28.0799 17.057 28.0799 19.61V21.608C28.0799 24.161 28.7089 25.123 30.2999 25.123Z" fill="white"/>
<path d="M43.5407 6.697C46.9447 6.697 48.8687 8.806 48.8687 12.506V21.867C48.8687 25.567 46.9447 27.676 43.5407 27.676C40.1367 27.676 38.2127 25.567 38.2127 21.867V1.369C38.2127 0.629001 38.8417 0 39.5817 0C40.3217 0 40.9507 0.629001 40.9507 1.369V7.437C41.6907 6.993 42.6157 6.697 43.5407 6.697ZM46.1307 21.423V12.95C46.1307 10.397 45.3167 9.25 43.5407 9.25C42.1347 9.25 40.9507 10.545 40.9507 12.95V21.423C40.9507 23.976 41.7647 25.123 43.5407 25.123C45.3167 25.123 46.1307 23.976 46.1307 21.423Z" fill="white"/>
<path d="M52.8843 27.38C52.1443 27.38 51.5153 26.751 51.5153 26.011V1.369C51.5153 0.629001 52.1443 0 52.8843 0C53.6243 0 54.2533 0.629001 54.2533 1.369V26.011C54.2533 26.751 53.6243 27.38 52.8843 27.38Z" fill="white"/>
<path d="M65.1067 19.758H59.6677V21.386C59.6677 23.939 60.4817 25.086 62.2577 25.086C63.9597 25.086 64.6627 23.976 64.6627 22.533V22.459C64.6627 21.608 65.1807 21.053 65.9577 21.053C66.7717 21.053 67.2527 21.608 67.2527 22.459V22.792C67.2527 25.567 65.5877 27.639 62.2577 27.639C58.8537 27.639 56.9297 25.53 56.9297 21.83V12.58C56.9297 8.88 58.8537 6.771 62.1837 6.771C65.5137 6.771 67.3637 8.88 67.3637 12.58V17.501C67.3637 19.055 66.6977 19.758 65.1067 19.758ZM62.1837 9.324C60.4817 9.324 59.6677 10.471 59.6677 13.024V17.131H64.6997V13.024C64.6997 10.471 63.8857 9.324 62.1837 9.324Z" fill="white"/>
<path d="M81.7677 14.541C82.5077 14.541 83.0997 15.133 83.0997 15.91C83.0997 16.687 82.5077 17.279 81.7677 17.279H78.3637V21.127C78.3637 21.867 77.7717 22.459 76.9947 22.459C76.2177 22.459 75.6257 21.867 75.6257 21.127V17.279H72.2217C71.4817 17.279 70.8897 16.687 70.8897 15.91C70.8897 15.133 71.4817 14.541 72.2217 14.541H75.6257V10.693C75.6257 9.953 76.2177 9.361 76.9947 9.361C77.7717 9.361 78.3637 9.953 78.3637 10.693V14.541H81.7677Z" fill="white"/>
<path d="M89.4331 27.639C86.0291 27.639 83.6981 25.308 83.6981 21.386C83.6981 19.758 84.0681 18.5 84.3271 17.908C84.6971 17.057 85.4741 16.724 86.2881 16.983C87.0281 17.205 87.2501 18.093 86.9541 18.87C86.6581 19.721 86.5101 20.387 86.5101 21.238C86.5101 23.495 87.6201 25.012 89.5071 25.012C91.3201 25.012 92.5041 23.717 92.5041 19.98C92.5041 17.02 91.7271 15.466 89.2851 13.875L87.8791 12.95C85.4741 11.396 84.3271 9.731 84.3271 6.771C84.3271 3.367 86.5101 1.184 89.6551 1.184C92.9481 1.184 94.8721 3.034 94.8721 6.771V7.067C94.8721 7.918 94.2801 8.436 93.5031 8.436C92.7631 8.436 92.1341 7.918 92.1341 6.993V6.771C92.1341 4.477 91.1351 3.774 89.7291 3.774C88.1751 3.774 87.1391 4.995 87.1391 6.771C87.1391 8.51 87.7681 9.472 89.2111 10.397L90.6171 11.322C94.0951 13.542 95.3531 15.54 95.3531 19.795C95.3531 25.604 92.8741 27.639 89.4331 27.639Z" fill="white"/>
<path d="M105.437 19.758H99.9977V21.386C99.9977 23.939 100.812 25.086 102.588 25.086C104.29 25.086 104.993 23.976 104.993 22.533V22.459C104.993 21.608 105.511 21.053 106.288 21.053C107.102 21.053 107.583 21.608 107.583 22.459V22.792C107.583 25.567 105.918 27.639 102.588 27.639C99.1837 27.639 97.2597 25.53 97.2597 21.83V12.58C97.2597 8.88 99.1837 6.771 102.514 6.771C105.844 6.771 107.694 8.88 107.694 12.58V17.501C107.694 19.055 107.028 19.758 105.437 19.758ZM102.514 9.324C100.812 9.324 99.9977 10.471 99.9977 13.024V17.131H105.03V13.024C105.03 10.471 104.216 9.324 102.514 9.324Z" fill="white"/>
<path d="M115.198 27.602C111.868 27.602 109.944 25.493 109.944 21.793V12.617C109.944 8.917 111.868 6.808 115.198 6.808C118.528 6.808 120.082 8.695 120.082 11.285V11.655C120.082 12.432 119.601 12.987 118.787 12.987C118.01 12.987 117.529 12.432 117.529 11.729V11.692C117.529 10.249 116.863 9.361 115.198 9.361C113.496 9.361 112.682 10.508 112.682 13.061V21.349C112.682 23.902 113.496 25.049 115.198 25.049C116.9 25.049 117.529 24.124 117.529 22.718V22.681C117.529 21.941 118.01 21.349 118.787 21.349C119.601 21.349 120.082 21.941 120.082 22.644V23.125C120.082 25.715 118.528 27.602 115.198 27.602Z" fill="white"/>
<path d="M127.379 27.676C124.049 27.676 122.125 25.567 122.125 21.867V8.399C122.125 7.659 122.754 7.03 123.494 7.03C124.234 7.03 124.863 7.659 124.863 8.399V21.423C124.863 23.976 125.677 25.123 127.379 25.123C129.081 25.123 129.895 23.976 129.895 21.423V8.399C129.895 7.659 130.524 7.03 131.264 7.03C132.004 7.03 132.633 7.659 132.633 8.399V21.867C132.633 25.567 130.709 27.676 127.379 27.676Z" fill="white"/>
<path d="M136.575 27.38C135.835 27.38 135.206 26.751 135.206 26.011V12.432C135.206 8.732 137.019 6.697 140.201 6.697C143.346 6.697 145.011 8.621 145.011 12.543V13.431C145.011 14.282 144.419 14.837 143.679 14.837C142.976 14.837 142.347 14.282 142.347 13.431V12.876C142.347 10.434 141.829 9.25 140.312 9.25C138.758 9.25 137.944 10.323 137.944 12.876V26.011C137.944 26.751 137.315 27.38 136.575 27.38Z" fill="white"/>
<path d="M154.547 19.758H149.108V21.386C149.108 23.939 149.922 25.086 151.698 25.086C153.4 25.086 154.103 23.976 154.103 22.533V22.459C154.103 21.608 154.621 21.053 155.398 21.053C156.212 21.053 156.693 21.608 156.693 22.459V22.792C156.693 25.567 155.028 27.639 151.698 27.639C148.294 27.639 146.37 25.53 146.37 21.83V12.58C146.37 8.88 148.294 6.771 151.624 6.771C154.954 6.771 156.804 8.88 156.804 12.58V17.501C156.804 19.055 156.138 19.758 154.547 19.758ZM151.624 9.324C149.922 9.324 149.108 10.471 149.108 13.024V17.131H154.14V13.024C154.14 10.471 153.326 9.324 151.624 9.324Z" fill="white"/>
</svg>
