<svg width="156" height="28" viewBox="0 0 156 28" fill="none" xmlns="http://www.w3.org/2000/svg">
<path d="M5.735 27.639C2.331 27.639 0 25.308 0 21.386C0 19.758 0.37 18.5 0.629 17.908C0.999 17.057 1.776 16.724 2.59 16.983C3.33 17.205 3.552 18.093 3.256 18.87C2.96 19.721 2.812 20.387 2.812 21.238C2.812 23.495 3.922 25.012 5.809 25.012C7.622 25.012 8.806 23.717 8.806 19.98C8.806 17.02 8.029 15.466 5.587 13.875L4.181 12.95C1.776 11.396 0.629 9.731 0.629 6.771C0.629 3.367 2.812 1.184 5.957 1.184C9.25 1.184 11.174 3.034 11.174 6.771V7.067C11.174 7.918 10.582 8.436 9.805 8.436C9.065 8.436 8.436 7.918 8.436 6.993V6.771C8.436 4.477 7.437 3.774 6.031 3.774C4.477 3.774 3.441 4.995 3.441 6.771C3.441 8.51 4.07 9.472 5.513 10.397L6.919 11.322C10.397 13.542 11.655 15.54 11.655 19.795C11.655 25.604 9.176 27.639 5.735 27.639Z" fill="white"/>
<path d="M22.6637 21.201C23.4777 21.201 23.9217 21.793 23.9217 22.644V23.125C23.9217 25.715 22.2197 27.602 19.5557 27.602C16.6327 27.602 14.8567 25.752 14.8567 22.496V9.694H12.9327C12.2297 9.694 11.6377 9.102 11.6377 8.399C11.6377 7.696 12.2297 7.104 12.9327 7.104H14.8567V2.331C14.8567 1.591 15.4857 0.962001 16.2257 0.962001C16.9657 0.962001 17.5947 1.591 17.5947 2.331V7.104H20.2957C20.9987 7.104 21.5907 7.696 21.5907 8.399C21.5907 9.102 20.9987 9.694 20.2957 9.694H17.5947V22.052C17.5947 24.161 18.4087 25.049 19.6667 25.049C20.7397 25.049 21.3687 24.124 21.3687 22.681V22.607C21.3687 21.756 21.8867 21.201 22.6637 21.201Z" fill="white"/>
<path d="M29.5037 6.771C32.8337 6.771 34.7577 8.88 34.7577 12.58V26.011C34.7577 26.751 34.1287 27.38 33.3887 27.38C32.7597 27.38 32.3157 27.01 32.0937 26.455C31.3537 27.269 30.5397 27.676 29.1337 27.676C26.2107 27.676 24.4717 25.863 24.4717 22.163V19.055C24.4717 15.355 26.2107 13.542 29.1337 13.542C30.5027 13.542 31.3167 13.912 32.0197 14.689V13.024C32.0197 10.471 31.2057 9.324 29.5037 9.324C27.8017 9.324 27.1727 10.249 27.1727 11.692V11.729C27.1727 12.432 26.7657 12.987 25.8777 12.987C25.1747 12.987 24.6197 12.395 24.6197 11.618V11.248C24.6197 8.658 26.1737 6.771 29.5037 6.771ZM29.4297 25.123C30.8357 25.123 32.0197 23.828 32.0197 21.423V19.795C32.0197 17.39 30.8357 16.095 29.4297 16.095C27.8387 16.095 27.2097 17.057 27.2097 19.61V21.608C27.2097 24.161 27.8387 25.123 29.4297 25.123Z" fill="white"/>
<path d="M42.6705 6.697C46.0745 6.697 47.9985 8.806 47.9985 12.506V21.867C47.9985 25.567 46.0745 27.676 42.6705 27.676C39.2665 27.676 37.3425 25.567 37.3425 21.867V1.369C37.3425 0.629001 37.9715 0 38.7115 0C39.4515 0 40.0805 0.629001 40.0805 1.369V7.437C40.8205 6.993 41.7455 6.697 42.6705 6.697ZM45.2605 21.423V12.95C45.2605 10.397 44.4465 9.25 42.6705 9.25C41.2645 9.25 40.0805 10.545 40.0805 12.95V21.423C40.0805 23.976 40.8945 25.123 42.6705 25.123C44.4465 25.123 45.2605 23.976 45.2605 21.423Z" fill="white"/>
<path d="M52.0142 27.38C51.2742 27.38 50.6452 26.751 50.6452 26.011V1.369C50.6452 0.629001 51.2742 0 52.0142 0C52.7542 0 53.3832 0.629001 53.3832 1.369V26.011C53.3832 26.751 52.7542 27.38 52.0142 27.38Z" fill="white"/>
<path d="M64.2366 19.758H58.7976V21.386C58.7976 23.939 59.6116 25.086 61.3876 25.086C63.0896 25.086 63.7926 23.976 63.7926 22.533V22.459C63.7926 21.608 64.3106 21.053 65.0876 21.053C65.9016 21.053 66.3826 21.608 66.3826 22.459V22.792C66.3826 25.567 64.7176 27.639 61.3876 27.639C57.9836 27.639 56.0596 25.53 56.0596 21.83V12.58C56.0596 8.88 57.9836 6.771 61.3136 6.771C64.6436 6.771 66.4936 8.88 66.4936 12.58V17.501C66.4936 19.055 65.8276 19.758 64.2366 19.758ZM61.3136 9.324C59.6116 9.324 58.7976 10.471 58.7976 13.024V17.131H63.8296V13.024C63.8296 10.471 63.0156 9.324 61.3136 9.324Z" fill="white"/>
<path d="M80.8976 14.541C81.6376 14.541 82.2296 15.133 82.2296 15.91C82.2296 16.687 81.6376 17.279 80.8976 17.279H77.4936V21.127C77.4936 21.867 76.9016 22.459 76.1246 22.459C75.3476 22.459 74.7556 21.867 74.7556 21.127V17.279H71.3516C70.6116 17.279 70.0196 16.687 70.0196 15.91C70.0196 15.133 70.6116 14.541 71.3516 14.541H74.7556V10.693C74.7556 9.953 75.3476 9.361 76.1246 9.361C76.9016 9.361 77.4936 9.953 77.4936 10.693V14.541H80.8976Z" fill="white"/>
<path d="M88.563 27.639C85.159 27.639 82.828 25.308 82.828 21.386C82.828 19.758 83.198 18.5 83.457 17.908C83.827 17.057 84.604 16.724 85.418 16.983C86.158 17.205 86.38 18.093 86.084 18.87C85.788 19.721 85.64 20.387 85.64 21.238C85.64 23.495 86.75 25.012 88.637 25.012C90.45 25.012 91.634 23.717 91.634 19.98C91.634 17.02 90.857 15.466 88.415 13.875L87.009 12.95C84.604 11.396 83.457 9.731 83.457 6.771C83.457 3.367 85.64 1.184 88.785 1.184C92.078 1.184 94.002 3.034 94.002 6.771V7.067C94.002 7.918 93.41 8.436 92.633 8.436C91.893 8.436 91.264 7.918 91.264 6.993V6.771C91.264 4.477 90.265 3.774 88.859 3.774C87.305 3.774 86.269 4.995 86.269 6.771C86.269 8.51 86.898 9.472 88.341 10.397L89.747 11.322C93.225 13.542 94.483 15.54 94.483 19.795C94.483 25.604 92.004 27.639 88.563 27.639Z" fill="white"/>
<path d="M104.567 19.758H99.1276V21.386C99.1276 23.939 99.9416 25.086 101.718 25.086C103.42 25.086 104.123 23.976 104.123 22.533V22.459C104.123 21.608 104.641 21.053 105.418 21.053C106.232 21.053 106.713 21.608 106.713 22.459V22.792C106.713 25.567 105.048 27.639 101.718 27.639C98.3136 27.639 96.3896 25.53 96.3896 21.83V12.58C96.3896 8.88 98.3136 6.771 101.644 6.771C104.974 6.771 106.824 8.88 106.824 12.58V17.501C106.824 19.055 106.158 19.758 104.567 19.758ZM101.644 9.324C99.9416 9.324 99.1276 10.471 99.1276 13.024V17.131H104.16V13.024C104.16 10.471 103.346 9.324 101.644 9.324Z" fill="white"/>
<path d="M114.328 27.602C110.998 27.602 109.074 25.493 109.074 21.793V12.617C109.074 8.917 110.998 6.808 114.328 6.808C117.658 6.808 119.212 8.695 119.212 11.285V11.655C119.212 12.432 118.731 12.987 117.917 12.987C117.14 12.987 116.659 12.432 116.659 11.729V11.692C116.659 10.249 115.993 9.361 114.328 9.361C112.626 9.361 111.812 10.508 111.812 13.061V21.349C111.812 23.902 112.626 25.049 114.328 25.049C116.03 25.049 116.659 24.124 116.659 22.718V22.681C116.659 21.941 117.14 21.349 117.917 21.349C118.731 21.349 119.212 21.941 119.212 22.644V23.125C119.212 25.715 117.658 27.602 114.328 27.602Z" fill="white"/>
<path d="M126.508 27.676C123.178 27.676 121.254 25.567 121.254 21.867V8.399C121.254 7.659 121.883 7.03 122.623 7.03C123.363 7.03 123.992 7.659 123.992 8.399V21.423C123.992 23.976 124.806 25.123 126.508 25.123C128.21 25.123 129.024 23.976 129.024 21.423V8.399C129.024 7.659 129.653 7.03 130.393 7.03C131.133 7.03 131.762 7.659 131.762 8.399V21.867C131.762 25.567 129.838 27.676 126.508 27.676Z" fill="white"/>
<path d="M135.705 27.38C134.965 27.38 134.336 26.751 134.336 26.011V12.432C134.336 8.732 136.149 6.697 139.331 6.697C142.476 6.697 144.141 8.621 144.141 12.543V13.431C144.141 14.282 143.549 14.837 142.809 14.837C142.106 14.837 141.477 14.282 141.477 13.431V12.876C141.477 10.434 140.959 9.25 139.442 9.25C137.888 9.25 137.074 10.323 137.074 12.876V26.011C137.074 26.751 136.445 27.38 135.705 27.38Z" fill="white"/>
<path d="M153.677 19.758H148.238V21.386C148.238 23.939 149.052 25.086 150.828 25.086C152.53 25.086 153.233 23.976 153.233 22.533V22.459C153.233 21.608 153.751 21.053 154.528 21.053C155.342 21.053 155.823 21.608 155.823 22.459V22.792C155.823 25.567 154.158 27.639 150.828 27.639C147.424 27.639 145.5 25.53 145.5 21.83V12.58C145.5 8.88 147.424 6.771 150.754 6.771C154.084 6.771 155.934 8.88 155.934 12.58V17.501C155.934 19.055 155.268 19.758 153.677 19.758ZM150.754 9.324C149.052 9.324 148.238 10.471 148.238 13.024V17.131H153.27V13.024C153.27 10.471 152.456 9.324 150.754 9.324Z" fill="white"/>
</svg>
