<svg width="40" height="26" viewBox="0 0 40 26" fill="none" xmlns="http://www.w3.org/2000/svg">
<path d="M39.887 25.3538C39.903 25.3199 39.9171 25.2851 39.9291 25.2494C39.9417 25.2143 39.9524 25.1785 39.9614 25.1422C39.9704 25.1075 39.9776 25.0723 39.983 25.0368C39.9891 24.997 39.993 24.9568 39.9946 24.9165C39.9946 24.897 40 24.8783 40 24.8578V1.14312C40 1.12727 40 1.11329 39.9955 1.09837C39.9955 1.05734 39.9892 1.01725 39.9839 0.976224C39.9785 0.935198 39.974 0.906294 39.9659 0.872727C39.9578 0.839161 39.9453 0.800932 39.9336 0.765501C39.9225 0.729595 39.9093 0.694412 39.8941 0.66014C39.8798 0.628438 39.8627 0.598601 39.8457 0.5669C39.8286 0.535198 39.8044 0.49697 39.7811 0.464336C39.7721 0.452214 39.7667 0.438228 39.7578 0.426107C39.7488 0.413986 39.7309 0.399068 39.7183 0.384149C39.6923 0.354312 39.6654 0.325408 39.6367 0.298368C39.6079 0.271329 39.5846 0.251748 39.5568 0.229371C39.529 0.206993 39.5003 0.18648 39.468 0.167832C39.4357 0.149184 39.4061 0.131469 39.3783 0.115618C39.3505 0.0997669 39.3128 0.0857809 39.2796 0.0727273C39.2461 0.060023 39.2119 0.0491305 39.1773 0.0400932C39.1436 0.0306652 39.1095 0.0231944 39.075 0.0177156C39.0374 0.0111888 38.9988 0.00839161 38.9602 0.00559441C38.9414 0.00559441 38.9234 0 38.9037 0H1.09722C1.07749 0 1.05954 0 1.0407 0.00559441C1.00212 0.00559441 0.964448 0.0111888 0.92587 0.0177156C0.891421 0.023292 0.857283 0.0307617 0.823595 0.0400932C0.788983 0.0491272 0.754846 0.0600199 0.72132 0.0727273C0.688125 0.0857809 0.654929 0.0997669 0.622631 0.115618C0.590333 0.131469 0.560722 0.149184 0.53291 0.167832C0.501774 0.187023 0.471806 0.208198 0.443188 0.231235C0.415376 0.252681 0.389368 0.275058 0.36335 0.299301C0.337332 0.323543 0.307723 0.355245 0.281705 0.385082C0.269145 0.4 0.254784 0.412121 0.242224 0.42704C0.229664 0.441958 0.227869 0.453147 0.218897 0.465268C0.195571 0.497902 0.174944 0.532401 0.154309 0.567832C0.136861 0.598003 0.12098 0.629128 0.106752 0.661072C0.0912896 0.695327 0.0778098 0.73051 0.066381 0.766434C0.0547178 0.801865 0.0430588 0.837296 0.0340872 0.87366C0.0251155 0.910023 0.021523 0.942657 0.0161401 0.977156C0.0107571 1.01165 0.00627083 1.05828 0.00447651 1.0993C0.00447651 1.11422 0 1.12821 0 1.14406V24.8578C0 24.8783 0.00448286 24.896 0.00538002 24.9156C0.00538002 24.9566 0.0116606 24.9967 0.0170436 25.0368C0.0224266 25.0769 0.0296057 25.1077 0.0385773 25.1422C0.0475746 25.1785 0.0583506 25.2143 0.0708712 25.2494C0.0829083 25.2851 0.0969864 25.3199 0.113035 25.3538C0.128287 25.3865 0.144443 25.4172 0.162386 25.4471C0.182651 25.4816 0.204809 25.515 0.228767 25.5469C0.238402 25.5636 0.248886 25.5798 0.260171 25.5953C0.269143 25.6065 0.279913 25.614 0.289782 25.6242C0.322549 25.6611 0.357605 25.6957 0.39474 25.7277C0.417169 25.7473 0.438705 25.7678 0.462928 25.7855C0.503086 25.8145 0.545045 25.8407 0.58853 25.8639C0.611857 25.876 0.634282 25.8918 0.657608 25.9021C0.711278 25.9259 0.766816 25.945 0.823595 25.959C0.839744 25.9636 0.855894 25.9711 0.872042 25.9748C0.946977 25.9913 1.02333 25.9997 1.09992 26H38.9028C38.9794 25.9997 39.0557 25.9913 39.1307 25.9748C39.1468 25.9748 39.163 25.9636 39.1791 25.959C39.2359 25.945 39.2914 25.9259 39.3451 25.9021C39.3684 25.8918 39.3899 25.8769 39.4133 25.8639C39.4573 25.8407 39.4999 25.8145 39.5407 25.7855C39.564 25.7678 39.5855 25.7473 39.6079 25.7277C39.6452 25.6954 39.6805 25.6609 39.7138 25.6242C39.7228 25.614 39.7335 25.6065 39.7425 25.5953C39.7515 25.5842 39.7632 25.5627 39.7748 25.5469C39.7985 25.5149 39.8204 25.4816 39.8403 25.4471C39.8583 25.4163 39.8744 25.3855 39.8896 25.3538M2.19714 3.52727L13.2053 12.7152L2.19714 22.3944V3.52727ZM24.3858 11.7921L20.0022 15.4508L15.6187 11.7911L4.22922 2.28065H35.7806L24.3858 11.7921ZM14.953 14.1725L19.3096 17.8089C19.505 17.9718 19.7481 18.0607 19.9987 18.0607C20.2492 18.0607 20.4923 17.9718 20.6877 17.8089L25.0452 14.1725L35.9009 23.7138H4.10003L14.953 14.1725ZM26.7956 12.7142L37.8037 3.52634V22.3944L26.7956 12.7142Z" fill="#606060"/>
</svg>
