<svg width="46" height="39" viewBox="0 0 46 39" fill="none" xmlns="http://www.w3.org/2000/svg">
<g filter="url(#filter0_ii_426_25125)">
<path d="M45.9824 23C45.9824 28.6005 45.9824 31.4008 44.8925 33.5399C43.9338 35.4215 42.4039 36.9513 40.5223 37.9101C38.3832 39 35.583 39 29.9824 39L16.9824 39C11.3819 39 8.58164 39 6.44252 37.9101C4.5609 36.9513 3.03109 35.4215 2.07236 33.5399C0.982423 31.4008 0.982423 28.6005 0.982423 23L0.982424 16C0.982424 10.3995 0.982425 7.59922 2.07236 5.46011C3.0311 3.57849 4.5609 2.04868 6.44252 1.08995C8.58164 1.19891e-05 11.3819 1.22339e-05 16.9824 1.27235e-05L29.9824 1.386e-05C35.583 1.43496e-05 38.3832 1.45944e-05 40.5223 1.08995C42.404 2.04868 43.9338 3.57849 44.8925 5.46011C45.9824 7.59923 45.9824 10.3995 45.9824 16L45.9824 23Z" fill="#F0F1F5"/>
<path d="M45.9824 23C45.9824 28.6005 45.9824 31.4008 44.8925 33.5399C43.9338 35.4215 42.4039 36.9513 40.5223 37.9101C38.3832 39 35.583 39 29.9824 39L16.9824 39C11.3819 39 8.58164 39 6.44252 37.9101C4.5609 36.9513 3.03109 35.4215 2.07236 33.5399C0.982423 31.4008 0.982423 28.6005 0.982423 23L0.982424 16C0.982424 10.3995 0.982425 7.59922 2.07236 5.46011C3.0311 3.57849 4.5609 2.04868 6.44252 1.08995C8.58164 1.19891e-05 11.3819 1.22339e-05 16.9824 1.27235e-05L29.9824 1.386e-05C35.583 1.43496e-05 38.3832 1.45944e-05 40.5223 1.08995C42.404 2.04868 43.9338 3.57849 44.8925 5.46011C45.9824 7.59923 45.9824 10.3995 45.9824 16L45.9824 23Z" fill="url(#paint0_linear_426_25125)" fill-opacity="0.6" style="mix-blend-mode:soft-light"/>
</g>
<defs>
<filter id="filter0_ii_426_25125" x="-2.65073" y="-3.63315" width="52.2663" height="46.2663" filterUnits="userSpaceOnUse" color-interpolation-filters="sRGB">
<feFlood flood-opacity="0" result="BackgroundImageFix"/>
<feBlend mode="normal" in="SourceGraphic" in2="BackgroundImageFix" result="shape"/>
<feColorMatrix in="SourceAlpha" type="matrix" values="0 0 0 0 0 0 0 0 0 0 0 0 0 0 0 0 0 0 127 0" result="hardAlpha"/>
<feOffset dx="5.44973" dy="5.44973"/>
<feGaussianBlur stdDeviation="1.81658"/>
<feComposite in2="hardAlpha" operator="arithmetic" k2="-1" k3="1"/>
<feColorMatrix type="matrix" values="0 0 0 0 0.682353 0 0 0 0 0.682353 0 0 0 0 0.752941 0 0 0 0.2 0"/>
<feBlend mode="normal" in2="shape" result="effect1_innerShadow_426_25125"/>
<feColorMatrix in="SourceAlpha" type="matrix" values="0 0 0 0 0 0 0 0 0 0 0 0 0 0 0 0 0 0 127 0" result="hardAlpha"/>
<feOffset dx="-3.63315" dy="-3.63315"/>
<feGaussianBlur stdDeviation="1.81658"/>
<feComposite in2="hardAlpha" operator="arithmetic" k2="-1" k3="1"/>
<feColorMatrix type="matrix" values="0 0 0 0 1 0 0 0 0 1 0 0 0 0 1 0 0 0 0.7 0"/>
<feBlend mode="normal" in2="effect1_innerShadow_426_25125" result="effect2_innerShadow_426_25125"/>
</filter>
<linearGradient id="paint0_linear_426_25125" x1="0.982423" y1="1.13248e-05" x2="39.5865" y2="44.5432" gradientUnits="userSpaceOnUse">
<stop/>
<stop offset="1" stop-color="white" stop-opacity="0"/>
</linearGradient>
</defs>
</svg>
